<?xml version="1.0" encoding="utf-8"?>
<!-- Generator: Adobe Illustrator 20.1.0, SVG Export Plug-In . SVG Version: 6.00 Build 0)  -->
<svg version="1.1" id="Layer_1" xmlns="http://www.w3.org/2000/svg" xmlns:xlink="http://www.w3.org/1999/xlink" x="0px" y="0px"
	 viewBox="0 0 512 512" style="enable-background:new 0 0 512 512;" xml:space="preserve">
<style type="text/css">
	.st0{fill:#FFFFFF;}
	.st1{fill:#FFCB2C;stroke:#366CAF;stroke-width:34.5442;stroke-miterlimit:10;}
</style>
<path class="st0" d="M256,302.1c-55.2,0-100-44.9-100-100s44.9-100,100-100s100,44.9,100,100S311.2,302.1,256,302.1z"/>
<path class="st1" d="M256,17.3c-102.4,0-185.4,83-185.4,185.4c0,148.5,167.6,285.9,167.6,285.9c9.8,8,25.8,8,35.6,0
	c0,0,167.6-137.5,167.6-285.9C441.4,100.3,358.4,17.3,256,17.3z M256,296c-51.4,0-93.3-41.8-93.3-93.3c0-51.4,41.8-93.3,93.3-93.3
	s93.3,41.8,93.3,93.3C349.3,254.1,307.4,296,256,296z"/>
</svg>
