<svg id="Mizan" data-name="Layer 1" xmlns="http://www.w3.org/2000/svg" viewBox="0 0 85.04 34.76"><title>Mizan</title><path d="M23.64,10a42,42,0,0,1,1.27,9.64q0,6.22-2.71,10a37.06,37.06,0,0,1-10.49,1.78q-6,0-8.84-2.47A8.88,8.88,0,0,1,0,21.86,31.21,31.21,0,0,1,2.66,10.7L8.5,12.6a21.72,21.72,0,0,0-1.56,6.72,4.12,4.12,0,0,0,1.21,3.23,5.5,5.5,0,0,0,3.74,1.08,21.72,21.72,0,0,0,2.73-.21,29.11,29.11,0,0,0,3.32-.63q-.13-3-.4-5.37t-.74-6ZM11,7.17A11.84,11.84,0,0,0,13.32,8.5,8.5,8.5,0,0,0,15.2,6.41q1.12-1.59,1-2.22A2.71,2.71,0,0,0,15.25,3a9,9,0,0,0-1.78-1.25,2.49,2.49,0,0,0-1.42-.42,2.3,2.3,0,0,0-1.18.87A10.23,10.23,0,0,0,9.66,4,6.3,6.3,0,0,0,9,5.46,9,9,0,0,0,11,7.17Zm23.85,8.22q0-7.27-.55-15.39L27.45.38Q28,10,28,16.83q0,3.64-.21,7l.25.21a27.93,27.93,0,0,0,3.85-.36,8.92,8.92,0,0,0,2.83-.82Q34.84,20,34.85,15.39ZM41.19,12a11.87,11.87,0,0,0,2.33,1.33,8.5,8.5,0,0,0,1.88-2.09q1.12-1.59.95-2.22a2.71,2.71,0,0,0-.91-1.16A9,9,0,0,0,43.66,6.6a2.5,2.5,0,0,0-1.42-.42A2.31,2.31,0,0,0,41.06,7a10.25,10.25,0,0,0-1.21,1.73,6.32,6.32,0,0,0-.66,1.5A9,9,0,0,0,41.19,12ZM59.73,27.93a4.57,4.57,0,0,0-2.14-1,1.69,1.69,0,0,0-1.14.74,11,11,0,0,0-1.23,1.8,5,5,0,0,0-1.65-1.59,4.23,4.23,0,0,0-2-1q-.68,0-1.69,1.48a9,9,0,0,0-1.27,2.37,10.41,10.41,0,0,0,1.86,1.54,14.52,14.52,0,0,0,2.16,1.29,6.62,6.62,0,0,0,1.1-1.1,10,10,0,0,0,1.1-1.56,9.49,9.49,0,0,0,1.82,1.5,12.8,12.8,0,0,0,2,1.16,8.37,8.37,0,0,0,1.73-1.95,3.67,3.67,0,0,0,.93-2.07Q61.19,29,59.73,27.93ZM85,16.41A10,10,0,0,1,83.6,22a4.53,4.53,0,0,1-4,2.22,7.82,7.82,0,0,1-3.53-.93,15.36,15.36,0,0,1-3.49-2.45,9.42,9.42,0,0,1-3.28,2.33,10.51,10.51,0,0,1-4.17.8,7.71,7.71,0,0,1-6.55-3h-.38a5.35,5.35,0,0,1-2.5,1.9,13,13,0,0,1-3.09.85,30.35,30.35,0,0,1-4,.21,19.72,19.72,0,0,1-3.13-.34q-.8,2.2-2.28,5.45-1,2.11-1.88,3.79a20,20,0,0,1-1.12,1.92,16,16,0,0,1-3.72-2.07,14.62,14.62,0,0,1-2.66-2.24,71.54,71.54,0,0,0,4.44-6.81,43.53,43.53,0,0,0,3.47-8l.38-.25a25.66,25.66,0,0,0,3.66.51q1.88.13,2.85.13a21.41,21.41,0,0,0,3.89-.3,6.61,6.61,0,0,0,2.83-1.27,6.88,6.88,0,0,0,2.07-2.92l3.55.55a7.9,7.9,0,0,0,0,.93,2.66,2.66,0,0,0,.93,2.39,6.37,6.37,0,0,0,3.3.61,8.31,8.31,0,0,0,3.32-.61A8.21,8.21,0,0,0,70.81,14,30,30,0,0,0,73,11.59a17.63,17.63,0,0,1,2.73-2.73,4.81,4.81,0,0,1,3-.91A5.35,5.35,0,0,1,82,9a6.89,6.89,0,0,1,2.22,3A11.54,11.54,0,0,1,85,16.41Zm-3.51,0a1.32,1.32,0,0,0-.82-1A4.52,4.52,0,0,0,78.57,15a6.45,6.45,0,0,0-3.38.89,5.09,5.09,0,0,0,1.86.8,9.74,9.74,0,0,0,2.2.25,6.68,6.68,0,0,0,1.44-.15A1.58,1.58,0,0,0,81.53,16.41Z" fill="#231f20"/></svg>